<svg width="44" height="41" viewBox="0 0 44 41" fill="none" xmlns="http://www.w3.org/2000/svg">
<g clip-path="url(#clip0_169_98)">
<path d="M29.1152 11.8584C29.0879 11.9131 29.0605 11.9678 29.0332 12.0225C29.0059 12.0635 28.9854 12.1113 28.9717 12.166C29.0264 12.2207 29.0742 12.2822 29.1152 12.3506C29.1699 12.4053 29.1973 12.4668 29.1973 12.5352C29.1973 12.5898 29.1836 12.6445 29.1562 12.6992C29.1426 12.7402 29.1426 12.7812 29.1562 12.8223C29.1016 12.918 29.04 13.0068 28.9717 13.0889C28.917 13.1709 28.876 13.2598 28.8486 13.3555C28.7939 13.4102 28.7461 13.4648 28.7051 13.5195C28.6777 13.5742 28.6504 13.6289 28.623 13.6836C28.5547 13.7109 28.5068 13.7588 28.4795 13.8271C28.4658 13.8818 28.4316 13.9297 28.377 13.9707C28.3633 14.0254 28.2949 14.1553 28.1719 14.3604C28.0488 14.5654 27.9121 14.7842 27.7617 15.0166C27.6113 15.249 27.4678 15.4746 27.3311 15.6934C27.1943 15.9121 27.0986 16.0557 27.0439 16.124C27.0166 16.1924 26.9824 16.2471 26.9414 16.2881C26.9141 16.3291 26.8799 16.377 26.8389 16.4316C26.8115 16.4727 26.791 16.5205 26.7773 16.5752C26.7637 16.6162 26.7432 16.6504 26.7158 16.6777C26.6885 16.7324 26.6543 16.7803 26.6133 16.8213C26.5859 16.8623 26.5586 16.917 26.5312 16.9854C26.3945 17.1631 26.2578 17.375 26.1211 17.6211C25.9844 17.8672 25.8545 18.0859 25.7314 18.2773C25.6631 18.3867 25.5947 18.4961 25.5264 18.6055C25.4717 18.7148 25.4102 18.8242 25.3418 18.9336C25.2734 19.043 25.2051 19.1455 25.1367 19.2412C25.0684 19.3369 25 19.4395 24.9316 19.5488C24.8223 19.6309 24.7266 19.7334 24.6445 19.8564C24.5625 19.9658 24.4668 20.0615 24.3574 20.1436C24.1797 20.1436 24.0703 20.0615 24.0293 19.8975C23.8516 19.8564 23.7627 19.8564 23.7627 19.8975C23.7627 19.9385 23.7627 19.9727 23.7627 20C23.708 20.0273 23.667 20.0684 23.6396 20.123C23.626 20.1777 23.5918 20.2188 23.5371 20.2461C23.4277 20.2188 23.332 20.1709 23.25 20.1025C23.1816 20.0479 23.0791 20.0273 22.9424 20.041C22.8877 19.959 22.8262 19.8906 22.7578 19.8359C22.6895 19.7676 22.6279 19.6992 22.5732 19.6309C22.5459 19.5488 22.5049 19.4805 22.4502 19.4258C22.4092 19.3711 22.3682 19.3164 22.3271 19.2617C22.2861 19.1934 22.2451 19.1318 22.2041 19.0771C22.1631 19.0225 22.1221 18.9678 22.0811 18.9131C21.9854 18.79 21.8896 18.6738 21.7939 18.5645C21.7119 18.4414 21.6367 18.3184 21.5684 18.1953C21.459 18.0312 21.3496 17.8672 21.2402 17.7031C21.1445 17.5254 21.042 17.3545 20.9326 17.1904C20.8779 17.1084 20.8232 17.0264 20.7686 16.9443C20.7139 16.8623 20.666 16.7803 20.625 16.6982C20.5977 16.6299 20.5566 16.5479 20.502 16.4521C20.4609 16.3564 20.4062 16.2949 20.3379 16.2676C20.3105 16.1582 20.2627 16.0762 20.1943 16.0215C20.126 15.9668 20.0576 15.8984 19.9893 15.8164C19.8936 15.707 19.8047 15.5908 19.7227 15.4678C19.6406 15.3311 19.5586 15.1943 19.4766 15.0576C19.2031 14.6748 18.9434 14.2988 18.6973 13.9297C18.4648 13.5605 18.2324 13.1777 18 12.7812C18.0684 12.5625 18.1025 12.3984 18.1025 12.2891C18.1025 12.1797 18.1367 12.0908 18.2051 12.0225C18.2051 11.9678 18.2188 11.8857 18.2461 11.7764C18.4238 11.4756 18.5947 11.2021 18.7588 10.9561C18.9092 10.7236 19.0117 10.5322 19.0664 10.3818C19.1348 10.2314 19.2031 10.0742 19.2715 9.91016C19.3398 9.86914 19.3945 9.82129 19.4355 9.7666C19.4766 9.69824 19.5312 9.63673 19.5996 9.58204C19.627 9.43165 19.6885 9.30859 19.7842 9.21289C19.8799 9.10352 19.9414 8.97364 19.9688 8.82325C20.0918 8.72755 20.1602 8.61816 20.1738 8.49512C20.3516 8.37207 20.4609 8.20801 20.502 8.00293C20.6113 7.89355 20.7002 7.77051 20.7686 7.63379C20.8506 7.49707 20.9258 7.35352 20.9941 7.20312C21.1582 7.06641 21.2881 6.88867 21.3838 6.66992C21.4658 6.61523 21.5273 6.54005 21.5684 6.44434C21.6094 6.34863 21.6641 6.2666 21.7324 6.19824C21.8418 6.02051 21.9238 5.87695 21.9785 5.76758C22.0469 5.64453 22.1152 5.52148 22.1836 5.39844C22.2793 5.39844 22.3408 5.36426 22.3682 5.2959C22.3955 5.22754 22.4502 5.2002 22.5322 5.21387C22.5322 5.09082 22.5664 4.98145 22.6348 4.88574C22.6621 4.87207 22.7031 4.8584 22.7578 4.84473C22.8125 4.81738 22.8398 4.79004 22.8398 4.7627C22.8125 4.59863 22.8193 4.50293 22.8604 4.47559C22.9014 4.44824 22.9355 4.4209 22.9629 4.39355C23.1133 4.4209 23.2158 4.44141 23.2705 4.45508C23.3252 4.46875 23.4141 4.5166 23.5371 4.59863C23.6738 4.59863 23.7695 4.62598 23.8242 4.68066C23.8789 4.73535 23.9404 4.77637 24.0088 4.80371C24.0635 4.8584 24.1045 4.91309 24.1318 4.96777C24.1729 5.02246 24.2275 5.06348 24.2959 5.09082C24.4053 5.24121 24.5215 5.40527 24.6445 5.58301C24.7676 5.76074 24.8838 5.9248 24.9932 6.0752C25.1436 6.28027 25.2939 6.47852 25.4443 6.66992C25.6084 6.84766 25.7588 7.0459 25.8955 7.26465C25.9365 7.33301 26.0117 7.45605 26.1211 7.63379C26.2305 7.79785 26.3535 7.9756 26.4902 8.167C26.627 8.35841 26.75 8.53613 26.8594 8.7002C26.9688 8.85059 27.0439 8.93945 27.085 8.9668C27.126 9.03516 27.2148 9.16504 27.3516 9.35645C27.4883 9.54785 27.6318 9.75293 27.7822 9.97168C27.9463 10.1768 28.1035 10.375 28.2539 10.5664C28.4043 10.7578 28.5068 10.8809 28.5615 10.9355C28.7119 11.1406 28.8213 11.3115 28.8896 11.4482C28.9717 11.5713 29.0469 11.708 29.1152 11.8584ZM24.4189 15.7139C24.5693 15.5088 24.6855 15.3242 24.7676 15.1602C24.8496 14.9961 24.9316 14.832 25.0137 14.668C25.1504 14.5039 25.2324 14.3877 25.2598 14.3193C25.2871 14.251 25.3213 14.1826 25.3623 14.1143C25.4717 13.9502 25.5811 13.7861 25.6904 13.6221C25.8135 13.458 25.9092 13.2803 25.9775 13.0889C26.0596 13.0342 26.1211 12.9658 26.1621 12.8838C26.2031 12.8018 26.2646 12.7266 26.3467 12.6582C26.2646 12.3711 26.1689 12.1523 26.0596 12.002C25.9502 11.8379 25.8408 11.6807 25.7314 11.5303C25.6904 11.4619 25.6494 11.3936 25.6084 11.3252C25.5674 11.2568 25.5264 11.1885 25.4854 11.1201C25.4307 11.0791 25.3828 11.0381 25.3418 10.9971C25.3145 10.9561 25.2803 10.915 25.2393 10.874C25.2119 10.8057 25.1709 10.7168 25.1162 10.6074C25.0615 10.5391 25.0068 10.4775 24.9521 10.4229C24.8975 10.3682 24.8496 10.2998 24.8086 10.2178C24.7539 10.1631 24.6855 10.0879 24.6035 9.9922C24.5215 9.89649 24.4326 9.79396 24.3369 9.68458C24.2549 9.56153 24.1797 9.45215 24.1113 9.35645C24.043 9.24707 23.9883 9.1582 23.9473 9.08984C23.9199 9.02148 23.8926 8.96681 23.8652 8.92579C23.8516 8.8711 23.8311 8.81641 23.8037 8.76172C23.7354 8.66602 23.667 8.58399 23.5986 8.51562C23.5303 8.4336 23.4619 8.34473 23.3936 8.24902C23.3525 8.27637 23.3115 8.29688 23.2705 8.31055C23.2432 8.31055 23.2158 8.32422 23.1885 8.35156C23.0928 8.5293 22.9834 8.69336 22.8604 8.84375C22.751 8.99414 22.6416 9.15821 22.5322 9.33595C22.4365 9.50001 22.3408 9.6709 22.2451 9.84863C22.1494 10.0127 22.0537 10.1768 21.958 10.3408C21.8896 10.4365 21.8213 10.5322 21.7529 10.6279C21.6982 10.71 21.6367 10.8057 21.5684 10.915C21.5 11.0107 21.4385 11.1133 21.3838 11.2227C21.3428 11.3184 21.2881 11.4141 21.2197 11.5098C21.1104 11.6465 21.0215 11.7695 20.9531 11.8789C20.8848 11.9883 20.8164 12.1182 20.748 12.2686C20.7891 12.3506 20.8506 12.4668 20.9326 12.6172C21.0283 12.7539 21.124 12.8975 21.2197 13.0479C21.3154 13.1846 21.3975 13.3145 21.4658 13.4375C21.5479 13.5605 21.5957 13.6426 21.6094 13.6836C21.7188 13.7793 21.8076 13.8887 21.876 14.0117C21.9443 14.1211 22.0332 14.2305 22.1426 14.3398C22.1973 14.4492 22.2588 14.5449 22.3271 14.627C22.3955 14.709 22.4639 14.7979 22.5322 14.8936C22.6006 14.9893 22.6895 15.1328 22.7988 15.3242C22.9082 15.502 23.0176 15.6865 23.127 15.8779C23.2363 16.0693 23.3457 16.2471 23.4551 16.4111C23.5645 16.5752 23.6533 16.6777 23.7217 16.7188C23.8584 16.5684 23.9678 16.4043 24.0498 16.2266C24.1455 16.0352 24.2686 15.8643 24.4189 15.7139ZM40.3125 11.8584C40.2852 11.9131 40.2578 11.9678 40.2305 12.0225C40.2031 12.0635 40.1826 12.1113 40.1689 12.166C40.2236 12.2207 40.2715 12.2822 40.3125 12.3506C40.3672 12.4053 40.3945 12.4668 40.3945 12.5352C40.3945 12.5898 40.3809 12.6445 40.3535 12.6992C40.3398 12.7402 40.3398 12.7812 40.3535 12.8223C40.2988 12.918 40.2373 13.0068 40.1689 13.0889C40.1143 13.1709 40.0732 13.2598 40.0459 13.3555C39.9912 13.4102 39.9434 13.4648 39.9023 13.5195C39.875 13.5742 39.8477 13.6289 39.8203 13.6836C39.752 13.7109 39.7041 13.7588 39.6768 13.8271C39.6631 13.8818 39.6289 13.9297 39.5742 13.9707C39.5605 14.0254 39.4922 14.1553 39.3691 14.3604C39.2461 14.5654 39.1094 14.7842 38.959 15.0166C38.8086 15.249 38.665 15.4746 38.5283 15.6934C38.3916 15.9121 38.2959 16.0557 38.2412 16.124C38.2139 16.1924 38.1797 16.2471 38.1387 16.2881C38.1113 16.3291 38.0771 16.377 38.0361 16.4316C38.0088 16.4727 37.9883 16.5205 37.9746 16.5752C37.9609 16.6162 37.9404 16.6504 37.9131 16.6777C37.8857 16.7324 37.8516 16.7803 37.8105 16.8213C37.7832 16.8623 37.7559 16.917 37.7285 16.9854C37.5918 17.1631 37.4551 17.375 37.3184 17.6211C37.1816 17.8672 37.0518 18.0859 36.9287 18.2773C36.8604 18.3867 36.792 18.4961 36.7236 18.6055C36.6689 18.7148 36.6074 18.8242 36.5391 18.9336C36.4707 19.043 36.4023 19.1455 36.334 19.2412C36.2656 19.3369 36.1973 19.4395 36.1289 19.5488C36.0195 19.6309 35.9238 19.7334 35.8418 19.8564C35.7598 19.9658 35.6641 20.0615 35.5547 20.1436C35.377 20.1436 35.2676 20.0615 35.2266 19.8975C35.0488 19.8564 34.96 19.8564 34.96 19.8975C34.96 19.9385 34.96 19.9727 34.96 20C34.9053 20.0273 34.8643 20.0684 34.8369 20.123C34.8232 20.1777 34.7891 20.2188 34.7344 20.2461C34.625 20.2188 34.5293 20.1709 34.4473 20.1025C34.3789 20.0479 34.2764 20.0273 34.1396 20.041C34.085 19.959 34.0234 19.8906 33.9551 19.8359C33.8867 19.7676 33.8252 19.6992 33.7705 19.6309C33.7432 19.5488 33.7021 19.4805 33.6475 19.4258C33.6064 19.3711 33.5654 19.3164 33.5244 19.2617C33.4834 19.1934 33.4424 19.1318 33.4014 19.0771C33.3604 19.0225 33.3193 18.9678 33.2783 18.9131C33.1826 18.79 33.0869 18.6738 32.9912 18.5645C32.9092 18.4414 32.834 18.3184 32.7656 18.1953C32.6562 18.0312 32.5469 17.8672 32.4375 17.7031C32.3418 17.5254 32.2393 17.3545 32.1299 17.1904C32.0752 17.1084 32.0205 17.0264 31.9658 16.9443C31.9111 16.8623 31.8633 16.7803 31.8223 16.6982C31.7949 16.6299 31.7539 16.5479 31.6992 16.4521C31.6582 16.3564 31.6035 16.2949 31.5352 16.2676C31.5078 16.1582 31.46 16.0762 31.3916 16.0215C31.3232 15.9668 31.2549 15.8984 31.1865 15.8164C31.0908 15.707 31.002 15.5908 30.9199 15.4678C30.8379 15.3311 30.7559 15.1943 30.6738 15.0576C30.4004 14.6748 30.1406 14.2988 29.8945 13.9297C29.6621 13.5605 29.4297 13.1777 29.1973 12.7812C29.2656 12.5625 29.2998 12.3984 29.2998 12.2891C29.2998 12.1797 29.334 12.0908 29.4023 12.0225C29.4023 11.9678 29.416 11.8857 29.4434 11.7764C29.6211 11.4756 29.792 11.2021 29.9561 10.9561C30.1064 10.7236 30.209 10.5322 30.2637 10.3818C30.332 10.2314 30.4004 10.0742 30.4688 9.91016C30.5371 9.86914 30.5918 9.82129 30.6328 9.7666C30.6738 9.69824 30.7285 9.63673 30.7969 9.58204C30.8242 9.43165 30.8857 9.30859 30.9814 9.21289C31.0771 9.10352 31.1387 8.97364 31.166 8.82325C31.2891 8.72755 31.3574 8.61816 31.3711 8.49512C31.5488 8.37207 31.6582 8.20801 31.6992 8.00293C31.8086 7.89355 31.8975 7.77051 31.9658 7.63379C32.0479 7.49707 32.123 7.35352 32.1914 7.20312C32.3555 7.06641 32.4854 6.88867 32.5811 6.66992C32.6631 6.61523 32.7246 6.54005 32.7656 6.44434C32.8066 6.34863 32.8613 6.2666 32.9297 6.19824C33.0391 6.02051 33.1211 5.87695 33.1758 5.76758C33.2441 5.64453 33.3125 5.52148 33.3809 5.39844C33.4766 5.39844 33.5381 5.36426 33.5654 5.2959C33.5928 5.22754 33.6475 5.2002 33.7295 5.21387C33.7295 5.09082 33.7637 4.98145 33.832 4.88574C33.8594 4.87207 33.9004 4.8584 33.9551 4.84473C34.0098 4.81738 34.0371 4.79004 34.0371 4.7627C34.0098 4.59863 34.0166 4.50293 34.0576 4.47559C34.0986 4.44824 34.1328 4.4209 34.1602 4.39355C34.3105 4.4209 34.4131 4.44141 34.4678 4.45508C34.5225 4.46875 34.6113 4.5166 34.7344 4.59863C34.8711 4.59863 34.9668 4.62598 35.0215 4.68066C35.0762 4.73535 35.1377 4.77637 35.2061 4.80371C35.2607 4.8584 35.3018 4.91309 35.3291 4.96777C35.3701 5.02246 35.4248 5.06348 35.4932 5.09082C35.6025 5.24121 35.7188 5.40527 35.8418 5.58301C35.9648 5.76074 36.0811 5.9248 36.1904 6.0752C36.3408 6.28027 36.4912 6.47852 36.6416 6.66992C36.8057 6.84766 36.9561 7.0459 37.0928 7.26465C37.1338 7.33301 37.209 7.45605 37.3184 7.63379C37.4277 7.79785 37.5508 7.9756 37.6875 8.167C37.8242 8.35841 37.9473 8.53613 38.0566 8.7002C38.166 8.85059 38.2412 8.93945 38.2822 8.9668C38.3232 9.03516 38.4121 9.16504 38.5488 9.35645C38.6855 9.54785 38.8291 9.75293 38.9795 9.97168C39.1436 10.1768 39.3008 10.375 39.4512 10.5664C39.6016 10.7578 39.7041 10.8809 39.7588 10.9355C39.9092 11.1406 40.0186 11.3115 40.0869 11.4482C40.1689 11.5713 40.2441 11.708 40.3125 11.8584ZM35.6162 15.7139C35.7666 15.5088 35.8828 15.3242 35.9648 15.1602C36.0469 14.9961 36.1289 14.832 36.2109 14.668C36.3477 14.5039 36.4297 14.3877 36.457 14.3193C36.4844 14.251 36.5186 14.1826 36.5596 14.1143C36.6689 13.9502 36.7783 13.7861 36.8877 13.6221C37.0107 13.458 37.1064 13.2803 37.1748 13.0889C37.2568 13.0342 37.3184 12.9658 37.3594 12.8838C37.4004 12.8018 37.4619 12.7266 37.5439 12.6582C37.4619 12.3711 37.3662 12.1523 37.2568 12.002C37.1475 11.8379 37.0381 11.6807 36.9287 11.5303C36.8877 11.4619 36.8467 11.3936 36.8057 11.3252C36.7646 11.2568 36.7236 11.1885 36.6826 11.1201C36.6279 11.0791 36.5801 11.0381 36.5391 10.9971C36.5117 10.9561 36.4775 10.915 36.4365 10.874C36.4092 10.8057 36.3682 10.7168 36.3135 10.6074C36.2588 10.5391 36.2041 10.4775 36.1494 10.4229C36.0947 10.3682 36.0469 10.2998 36.0059 10.2178C35.9512 10.1631 35.8828 10.0879 35.8008 9.9922C35.7188 9.89649 35.6299 9.79396 35.5342 9.68458C35.4521 9.56153 35.377 9.45215 35.3086 9.35645C35.2402 9.24707 35.1855 9.1582 35.1445 9.08984C35.1172 9.02148 35.0898 8.96681 35.0625 8.92579C35.0488 8.8711 35.0283 8.81641 35.001 8.76172C34.9326 8.66602 34.8643 8.58399 34.7959 8.51562C34.7275 8.4336 34.6592 8.34473 34.5908 8.24902C34.5498 8.27637 34.5088 8.29688 34.4678 8.31055C34.4404 8.31055 34.4131 8.32422 34.3857 8.35156C34.29 8.5293 34.1807 8.69336 34.0576 8.84375C33.9482 8.99414 33.8389 9.15821 33.7295 9.33595C33.6338 9.50001 33.5381 9.6709 33.4424 9.84863C33.3467 10.0127 33.251 10.1768 33.1553 10.3408C33.0869 10.4365 33.0186 10.5322 32.9502 10.6279C32.8955 10.71 32.834 10.8057 32.7656 10.915C32.6973 11.0107 32.6357 11.1133 32.5811 11.2227C32.54 11.3184 32.4854 11.4141 32.417 11.5098C32.3076 11.6465 32.2188 11.7695 32.1504 11.8789C32.082 11.9883 32.0137 12.1182 31.9453 12.2686C31.9863 12.3506 32.0479 12.4668 32.1299 12.6172C32.2256 12.7539 32.3213 12.8975 32.417 13.0479C32.5127 13.1846 32.5947 13.3145 32.6631 13.4375C32.7451 13.5605 32.793 13.6426 32.8066 13.6836C32.916 13.7793 33.0049 13.8887 33.0732 14.0117C33.1416 14.1211 33.2305 14.2305 33.3398 14.3398C33.3945 14.4492 33.4561 14.5449 33.5244 14.627C33.5928 14.709 33.6611 14.7979 33.7295 14.8936C33.7979 14.9893 33.8867 15.1328 33.9961 15.3242C34.1055 15.502 34.2148 15.6865 34.3242 15.8779C34.4336 16.0693 34.543 16.2471 34.6523 16.4111C34.7617 16.5752 34.8506 16.6777 34.9189 16.7188C35.0557 16.5684 35.165 16.4043 35.2471 16.2266C35.3428 16.0352 35.4658 15.8643 35.6162 15.7139ZM22.2656 34.627C22.293 34.6953 22.3887 34.8389 22.5527 35.0576C22.7305 35.2764 22.9287 35.5156 23.1475 35.7754C23.3662 36.0352 23.5713 36.2881 23.7627 36.5342C23.9678 36.7666 24.1113 36.9375 24.1934 37.0469C24.3438 37.2383 24.4873 37.4297 24.624 37.6211C24.7744 37.7988 24.9111 37.9902 25.0342 38.1953L25.4033 38.8105C25.5127 38.9473 25.6084 39.0635 25.6904 39.1592C25.7861 39.2549 25.8613 39.3848 25.916 39.5488C25.9434 39.6582 25.957 39.7334 25.957 39.7744C25.957 39.8701 25.9229 39.9385 25.8545 39.9795C25.7451 39.9795 25.6836 39.9932 25.6699 40.0205C25.6699 40.0615 25.6426 40.0957 25.5879 40.123C25.5332 40.1504 25.4443 40.1641 25.3213 40.1641C25.2119 40.1777 25.123 40.1846 25.0547 40.1846C24.9316 40.1846 24.7744 40.1777 24.583 40.1641C24.4053 40.1641 24.2617 40.1846 24.1523 40.2256C24.125 40.2393 24.084 40.2598 24.0293 40.2871C23.9746 40.3145 23.9336 40.3281 23.9062 40.3281C23.7969 40.3281 23.7148 40.3076 23.6602 40.2666C23.6191 40.2393 23.5576 40.2188 23.4756 40.2051C23.3662 40.082 23.2705 39.959 23.1885 39.8359C23.1201 39.6992 23.0381 39.5625 22.9424 39.4258C22.8467 39.3301 22.751 39.248 22.6553 39.1797C22.5596 39.0977 22.4775 39.0088 22.4092 38.9131C22.2041 38.6123 21.9922 38.3184 21.7734 38.0312C21.5547 37.7441 21.3291 37.4639 21.0967 37.1904C20.9873 37.04 20.8711 36.9033 20.748 36.7803C20.625 36.6572 20.5088 36.5205 20.3994 36.3701C20.29 36.2334 20.1875 36.0898 20.0918 35.9395C19.9961 35.7754 19.9004 35.6182 19.8047 35.4678C19.7227 35.3447 19.6133 35.1875 19.4766 34.9961C19.3398 34.791 19.1895 34.5928 19.0254 34.4014C18.8613 34.1963 18.6973 34.0049 18.5332 33.8271C18.3691 33.6494 18.2324 33.5127 18.123 33.417C18.1094 33.335 18.0752 33.2734 18.0205 33.2324C17.9658 33.1777 17.9043 33.1299 17.8359 33.0889C17.8086 33.0205 17.7812 32.959 17.7539 32.9043C17.7129 32.8359 17.6924 32.7676 17.6924 32.6992C17.6924 32.6035 17.7129 32.5146 17.7539 32.4326C17.7812 32.3779 17.8018 32.3301 17.8154 32.2891C17.8154 32.2344 17.8291 32.1797 17.8564 32.125C17.9248 31.9746 18.0137 31.8311 18.123 31.6943C18.2461 31.5439 18.3418 31.3867 18.4102 31.2227C18.4375 31.1816 18.4512 31.1406 18.4512 31.0996C18.4512 31.0449 18.4648 30.9971 18.4922 30.9561C18.5195 30.8467 18.5742 30.7578 18.6562 30.6895C18.752 30.6074 18.8271 30.5186 18.8818 30.4229C18.9502 30.3135 19.0117 30.2041 19.0664 30.0947C19.1348 29.9717 19.2031 29.8418 19.2715 29.7051C19.4766 29.3633 19.6885 29.0352 19.9072 28.7207C20.1396 28.3926 20.3721 28.0645 20.6045 27.7363C20.7822 27.4629 20.9531 27.2031 21.1172 26.957C21.2949 26.6973 21.4727 26.4375 21.6504 26.1777C21.7461 26.0547 21.8486 25.9111 21.958 25.7471C22.0674 25.583 22.1836 25.4189 22.3066 25.2549C22.4434 25.0908 22.5801 24.9404 22.7168 24.8037C22.8535 24.667 22.9902 24.5576 23.127 24.4756C23.332 24.4619 23.4688 24.5098 23.5371 24.6191C23.6055 24.7148 23.708 24.7627 23.8447 24.7627C24.0225 24.8037 24.1387 24.8584 24.1934 24.9268C24.248 24.9951 24.3096 25.0635 24.3779 25.1318C24.5693 25.1318 24.7197 25.166 24.8291 25.2344C24.9521 25.3027 25.0684 25.4053 25.1777 25.542C25.1367 25.6924 25.0752 25.8291 24.9932 25.9521C24.9111 26.0615 24.8359 26.1777 24.7676 26.3008C24.6582 26.3555 24.5762 26.4307 24.5215 26.5264C24.4805 26.6221 24.4121 26.6973 24.3164 26.752C24.1797 26.9844 24.0361 27.21 23.8857 27.4287C23.7354 27.6338 23.585 27.8389 23.4346 28.0439C23.3525 28.167 23.2637 28.2764 23.168 28.3721C23.0859 28.4678 23.0107 28.5703 22.9424 28.6797C22.915 28.7207 22.8877 28.7686 22.8604 28.8232C22.8467 28.8643 22.8262 28.9053 22.7988 28.9463C22.6348 29.2061 22.457 29.4521 22.2656 29.6846C22.0742 29.9033 21.8965 30.1494 21.7324 30.4229C21.6777 30.5186 21.6299 30.6211 21.5889 30.7305C21.5615 30.8262 21.5205 30.9219 21.4658 31.0176C21.4111 31.0996 21.3291 31.209 21.2197 31.3457C21.124 31.4824 21.0283 31.6328 20.9326 31.7969C20.8369 31.9473 20.748 32.0977 20.666 32.248C20.5977 32.3848 20.5635 32.501 20.5635 32.5967C20.5771 32.665 20.6592 32.8018 20.8096 33.0068C20.9736 33.1982 21.1514 33.4102 21.3428 33.6426C21.5479 33.8613 21.7393 34.0732 21.917 34.2783C22.0947 34.4697 22.2109 34.5859 22.2656 34.627ZM23.6191 30.8945C23.7148 31.0996 23.8174 31.2773 23.9268 31.4277C23.9678 31.4824 24.0156 31.5303 24.0703 31.5713C24.125 31.6123 24.166 31.667 24.1934 31.7354C24.2207 31.7627 24.248 31.8242 24.2754 31.9199C24.3027 32.002 24.3301 32.0635 24.3574 32.1045C24.3984 32.2139 24.4805 32.3369 24.6035 32.4736C24.7266 32.6104 24.7881 32.7334 24.7881 32.8428C24.7881 32.9111 24.7744 32.9863 24.7471 33.0684C24.7197 33.1504 24.6992 33.2256 24.6855 33.2939C24.6719 33.376 24.665 33.4648 24.665 33.5605C24.665 33.6426 24.6377 33.7178 24.583 33.7861C24.5146 33.8545 24.4395 33.8955 24.3574 33.9092C24.2754 33.9229 24.2002 33.957 24.1318 34.0117C24.1045 34.0391 24.0635 34.0869 24.0088 34.1553C23.9541 34.2236 23.8994 34.2988 23.8447 34.3809C23.79 34.4629 23.7354 34.5449 23.6807 34.627C23.6396 34.6953 23.6191 34.75 23.6191 34.791C23.4551 34.8047 23.3457 34.8115 23.291 34.8115C23.25 34.7979 23.2021 34.7979 23.1475 34.8115C23.0791 34.7432 23.0039 34.6885 22.9219 34.6475C22.8535 34.5928 22.7646 34.5449 22.6553 34.5039C22.6279 34.3945 22.5664 34.2715 22.4707 34.1348C22.375 33.9844 22.293 33.8613 22.2246 33.7656L22.0811 33.5811C21.876 33.2939 21.6846 33.0205 21.5068 32.7607C21.3428 32.4873 21.2197 32.1865 21.1377 31.8584C21.3975 31.667 21.5957 31.5234 21.7324 31.4277C21.8828 31.332 22.04 31.2432 22.2041 31.1611C22.3682 31.0791 22.5254 31.0039 22.6758 30.9355C22.8398 30.8535 22.9902 30.7578 23.127 30.6484C23.2363 30.6484 23.3115 30.6553 23.3525 30.6689C23.3936 30.6826 23.4209 30.6963 23.4346 30.71C23.4482 30.7236 23.4619 30.751 23.4756 30.792C23.5029 30.8193 23.5508 30.8535 23.6191 30.8945ZM31.1045 24.8857C31.1318 24.9404 31.1592 24.9814 31.1865 25.0088C31.2275 25.0225 31.2549 25.0635 31.2686 25.1318C31.3643 25.2002 31.4395 25.2549 31.4941 25.2959C31.5488 25.3232 31.583 25.3779 31.5967 25.46C31.7197 25.5557 31.7881 25.6172 31.8018 25.6445C31.8291 25.6719 31.8496 25.7061 31.8633 25.7471C31.9316 25.8018 31.9932 25.8496 32.0479 25.8906C32.1162 25.9316 32.1641 25.9932 32.1914 26.0752C32.3008 26.1709 32.3691 26.2461 32.3965 26.3008C32.4238 26.3555 32.4443 26.417 32.458 26.4854C32.4033 26.5811 32.2939 26.7109 32.1299 26.875C31.9658 27.0391 31.7812 27.2168 31.5762 27.4082C31.3711 27.5859 31.1729 27.7637 30.9814 27.9414C30.79 28.1055 30.6396 28.2354 30.5303 28.3311C30.5029 28.3857 30.4688 28.4336 30.4277 28.4746C30.3867 28.5156 30.3525 28.5635 30.3252 28.6182C30.2432 28.6865 30.168 28.7617 30.0996 28.8438C30.0312 28.9121 29.9492 28.9668 29.8535 29.0078C29.7168 29.1992 29.5254 29.3906 29.2793 29.582C29.0332 29.7598 28.8691 29.9375 28.7871 30.1152C28.8008 30.1562 28.8281 30.1973 28.8691 30.2383C28.9238 30.2793 28.9648 30.3135 28.9922 30.3408C29.1016 30.4502 29.2314 30.5527 29.3818 30.6484C29.5322 30.7305 29.6621 30.8262 29.7715 30.9355C29.8809 31.0312 29.9902 31.127 30.0996 31.2227C30.209 31.3047 30.3184 31.3936 30.4277 31.4893C30.4824 31.5439 30.5508 31.626 30.6328 31.7354C30.7695 31.8447 30.8994 31.9473 31.0225 32.043C31.1592 32.125 31.2891 32.2207 31.4121 32.3301C31.6719 32.5488 31.9248 32.7744 32.1709 33.0068C32.417 33.2256 32.6768 33.4443 32.9502 33.6631L33.1143 33.8477C33.1143 33.957 33.1416 34.0869 33.1963 34.2373C33.2646 34.374 33.3262 34.4902 33.3809 34.5859C33.3535 34.7227 33.3535 34.8115 33.3809 34.8525C33.4219 34.8799 33.4561 34.9072 33.4834 34.9346C33.4697 35.1943 33.4766 35.3652 33.5039 35.4473C33.2715 35.6523 33.0527 35.8438 32.8477 36.0215C32.6562 36.1855 32.4854 36.3496 32.335 36.5137C32.2119 36.6641 32.082 36.8008 31.9453 36.9238C31.8223 37.0332 31.6855 37.1562 31.5352 37.293C31.4531 37.4023 31.3848 37.4775 31.3301 37.5186C31.2344 37.6143 31.1387 37.6895 31.043 37.7441C30.8789 37.8945 30.7148 38.0381 30.5508 38.1748C30.4004 38.3115 30.25 38.4482 30.0996 38.585C29.9902 38.6807 29.8877 38.7764 29.792 38.8721C29.6963 38.9541 29.6006 39.0498 29.5049 39.1592C29.4229 39.2412 29.3271 39.3369 29.2178 39.4463C29.1221 39.5557 29.0195 39.6445 28.9102 39.7129C28.8691 39.7949 28.8145 39.8701 28.7461 39.9385C28.6777 39.9932 28.6162 40.0547 28.5615 40.123C28.4658 40.1777 28.377 40.2324 28.2949 40.2871C28.2129 40.3418 28.1172 40.3965 28.0078 40.4512C27.8984 40.3691 27.7891 40.2939 27.6797 40.2256C27.584 40.1572 27.4746 40.1094 27.3516 40.082C27.2695 40.0137 27.208 39.9453 27.167 39.877C27.126 39.8086 27.0508 39.7607 26.9414 39.7334C26.9141 39.6924 26.8799 39.6514 26.8389 39.6104C26.8115 39.5557 26.7842 39.501 26.7568 39.4463C26.5928 39.4326 26.4629 39.3301 26.3672 39.1387C26.3945 39.0566 26.4287 38.9951 26.4697 38.9541C26.5244 38.9131 26.5381 38.8379 26.5107 38.7285C26.5928 38.5918 26.6885 38.4756 26.7979 38.3799C26.9209 38.2705 27.0371 38.1611 27.1465 38.0518C27.2695 37.9424 27.3789 37.833 27.4746 37.7236C27.584 37.6006 27.7002 37.4844 27.8232 37.375C27.8916 37.3066 27.96 37.2451 28.0283 37.1904C28.0967 37.1221 28.1719 37.0537 28.2539 36.9854C28.4043 36.835 28.5547 36.6982 28.7051 36.5752C28.8691 36.4385 29.0332 36.2949 29.1973 36.1445C29.416 35.9258 29.6416 35.7207 29.874 35.5293C30.1064 35.3242 30.3184 35.0986 30.5098 34.8525C30.4961 34.7979 30.4756 34.7637 30.4482 34.75C30.4209 34.7227 30.4004 34.6885 30.3867 34.6475C30.168 34.4424 29.9492 34.2441 29.7305 34.0527C29.5254 33.8477 29.2998 33.6699 29.0537 33.5195C28.9717 33.4375 28.917 33.3691 28.8896 33.3145C28.6436 33.1367 28.4043 32.9385 28.1719 32.7197C27.9531 32.501 27.707 32.3164 27.4336 32.166C27.3789 32.0977 27.3105 32.043 27.2285 32.002C27.1602 31.9473 27.0918 31.8994 27.0234 31.8584C26.9824 31.79 26.9346 31.7354 26.8799 31.6943C26.8389 31.6396 26.7842 31.5986 26.7158 31.5713C26.6064 31.4756 26.5312 31.4004 26.4902 31.3457C26.4629 31.2773 26.4082 31.2363 26.3262 31.2227C26.2988 31.1543 26.251 31.0996 26.1826 31.0586C26.1279 31.0176 26.0664 30.9697 25.998 30.915C25.9707 30.833 25.9297 30.7646 25.875 30.71C25.8613 30.6006 25.8682 30.5254 25.8955 30.4844C25.9229 30.4297 25.9434 30.3887 25.957 30.3613C25.9434 30.2793 25.9092 30.2178 25.8545 30.1768C25.7861 30.1357 25.752 30.0674 25.752 29.9717C25.752 29.917 25.7725 29.8828 25.8135 29.8691C25.8408 29.8418 25.8613 29.8076 25.875 29.7666L25.9365 29.459C26.0459 29.377 26.1348 29.2812 26.2031 29.1719C26.2852 29.0488 26.3877 28.9531 26.5107 28.8848C26.6475 28.6797 26.8184 28.5088 27.0234 28.3721C27.0918 28.2627 27.1738 28.1738 27.2695 28.1055C27.3789 28.0371 27.4678 27.9482 27.5361 27.8389C27.6455 27.7705 27.7344 27.6953 27.8027 27.6133C27.8848 27.5312 27.9805 27.4561 28.0898 27.3877C28.1172 27.333 28.1445 27.292 28.1719 27.2646C28.2129 27.2236 28.2402 27.1826 28.2539 27.1416C28.623 26.7861 28.9443 26.4785 29.2178 26.2188C29.5049 25.959 29.7988 25.6992 30.0996 25.4395C30.1816 25.3711 30.2637 25.2959 30.3457 25.2139C30.4277 25.1318 30.5166 25.0566 30.6123 24.9883C30.6396 24.9609 30.6738 24.9473 30.7148 24.9473C30.7559 24.9473 30.7969 24.9336 30.8379 24.9062C31.002 24.9062 31.0908 24.8994 31.1045 24.8857ZM42.999 25.3369C42.9717 25.3916 42.958 25.4463 42.958 25.501C42.9717 25.5557 42.9785 25.6172 42.9785 25.6855C42.9512 25.8496 42.9512 25.9316 42.9785 25.9316C43.0059 25.9316 43.0195 25.9453 43.0195 25.9727L42.876 26.1777C42.876 26.2598 42.8555 26.335 42.8145 26.4033C42.7871 26.4717 42.7803 26.5537 42.7939 26.6494C42.7529 26.7178 42.7119 26.7861 42.6709 26.8545C42.6436 26.9229 42.5957 26.9912 42.5273 27.0596H42.2607C42.1104 27.0596 41.9463 27.0732 41.7686 27.1006C41.6045 27.1143 41.4404 27.1211 41.2764 27.1211C41.249 27.1211 41.2148 27.1211 41.1738 27.1211C41.1328 27.1074 41.0918 27.1006 41.0508 27.1006C41.0234 27.1006 40.9893 27.1074 40.9482 27.1211C40.9072 27.1211 40.8594 27.1211 40.8047 27.1211C40.5996 27.1211 40.3945 27.1143 40.1895 27.1006C39.998 27.0732 39.793 27.0596 39.5742 27.0596C39.5195 27.0596 39.4648 27.0596 39.4102 27.0596C39.3555 27.0596 39.2939 27.0664 39.2256 27.0801C39.2119 27.3125 39.1982 27.5518 39.1846 27.7979C39.1846 28.0303 39.1846 28.2695 39.1846 28.5156C39.1846 28.584 39.1777 28.6592 39.1641 28.7412C39.1504 28.8096 39.1436 28.8779 39.1436 28.9463C39.1299 29.124 39.1162 29.2949 39.1025 29.459C39.1025 29.623 39.1025 29.7939 39.1025 29.9717C39.1025 30.3545 39.1025 30.7373 39.1025 31.1201C39.1162 31.5029 39.1299 31.8926 39.1436 32.2891C39.1572 32.4941 39.1709 32.6924 39.1846 32.8838C39.1982 33.0752 39.2051 33.2734 39.2051 33.4785C39.2051 33.9434 39.1982 34.4082 39.1846 34.873C39.1709 35.3242 39.1641 35.7822 39.1641 36.2471C39.1641 36.3975 39.1572 36.541 39.1436 36.6777C39.1299 36.8008 39.123 36.9375 39.123 37.0879C39.123 37.4023 39.1299 37.7168 39.1436 38.0312C39.1572 38.3457 39.1641 38.6602 39.1641 38.9746C39.1641 39.125 39.1572 39.2754 39.1436 39.4258C39.1436 39.5762 39.1436 39.7266 39.1436 39.877C39.0752 39.9863 39.0273 40.082 39 40.1641C38.9727 40.2461 38.8906 40.2871 38.7539 40.2871C38.6582 40.2598 38.6104 40.2256 38.6104 40.1846C38.624 40.1572 38.6172 40.1299 38.5898 40.1025C38.4668 40.0889 38.3711 40.0957 38.3027 40.123C38.248 40.1641 38.1797 40.1982 38.0977 40.2256C38.0566 40.2119 38.0088 40.2051 37.9541 40.2051C37.9131 40.2051 37.8721 40.2051 37.8311 40.2051C37.8037 40.2051 37.7764 40.2119 37.749 40.2256C37.7217 40.2529 37.6602 40.2666 37.5645 40.2666C37.4824 40.2803 37.4346 40.2666 37.4209 40.2256C37.4072 40.1846 37.3662 40.1641 37.2979 40.1641C37.2295 40.2051 37.1475 40.2324 37.0518 40.2461C36.9697 40.2734 36.8877 40.2871 36.8057 40.2871C36.7236 40.2324 36.6826 40.1777 36.6826 40.123C36.6963 40.082 36.6895 40.0342 36.6621 39.9795C36.6484 39.9521 36.6211 39.918 36.5801 39.877C36.5527 39.8223 36.5254 39.7812 36.498 39.7539C36.5254 39.5625 36.5459 39.3916 36.5596 39.2412C36.5732 39.0908 36.5801 38.9268 36.5801 38.749C36.5801 38.3936 36.5664 38.0449 36.5391 37.7031C36.5117 37.3613 36.498 37.0127 36.498 36.6572C36.498 36.5479 36.5117 36.4316 36.5391 36.3086C36.5664 36.1855 36.5801 36.0557 36.5801 35.9189C36.5527 35.8096 36.5459 35.748 36.5596 35.7344C36.5732 35.707 36.5801 35.6797 36.5801 35.6523C36.5801 35.5703 36.5732 35.4883 36.5596 35.4062C36.5596 35.3242 36.5596 35.2422 36.5596 35.1602C36.5596 34.9961 36.5596 34.832 36.5596 34.668C36.5732 34.5039 36.5801 34.3398 36.5801 34.1758C36.5801 34.1074 36.5732 34.0391 36.5596 33.9707C36.5596 33.8887 36.5596 33.8135 36.5596 33.7451C36.5459 33.6221 36.5391 33.4922 36.5391 33.3555C36.5527 33.2188 36.5596 33.082 36.5596 32.9453C36.5596 32.2891 36.5459 31.6396 36.5186 30.9971C36.5049 30.3545 36.498 29.7051 36.498 29.0488C36.498 28.7207 36.5117 28.3994 36.5391 28.085C36.5801 27.7568 36.6006 27.4287 36.6006 27.1006C36.6006 27.0596 36.5869 27.0049 36.5596 26.9365C36.5322 26.8682 36.5049 26.8203 36.4775 26.793C36.4092 26.793 36.3408 26.793 36.2725 26.793C36.2178 26.7793 36.1562 26.7725 36.0879 26.7725C35.9375 26.7725 35.7939 26.793 35.6572 26.834C35.3975 26.8477 35.1445 26.8682 34.8984 26.8955C34.666 26.9092 34.4268 26.9229 34.1807 26.9365C34.0166 26.9229 33.9141 26.9229 33.873 26.9365C33.8457 26.9365 33.8115 26.9365 33.7705 26.9365C33.6611 26.9365 33.5791 26.9092 33.5244 26.8545V26.5879C33.4424 26.4238 33.4082 26.335 33.4219 26.3213C33.4355 26.3076 33.4424 26.2871 33.4424 26.2598C33.4424 26.2188 33.4082 26.1777 33.3398 26.1367C33.2578 26.082 33.2168 26 33.2168 25.8906C33.2031 25.7812 33.1758 25.6992 33.1348 25.6445C33.0938 25.5898 33.0732 25.5352 33.0732 25.4805C33.0732 25.3848 33.0938 25.2754 33.1348 25.1523C33.2578 25.084 33.374 25.0361 33.4834 25.0088C33.6064 24.9814 33.7432 24.9473 33.8936 24.9062C33.9756 24.8789 34.0508 24.8516 34.1191 24.8242C34.1875 24.7969 34.2627 24.7764 34.3447 24.7627C34.4404 24.749 34.5361 24.7422 34.6318 24.7422C34.7275 24.7422 34.8232 24.7354 34.9189 24.7217C35.124 24.6807 35.3359 24.6465 35.5547 24.6191C35.7871 24.5918 36.0059 24.5781 36.2109 24.5781C36.4023 24.5781 36.5938 24.6055 36.7852 24.6602C36.9766 24.7012 37.1475 24.7217 37.2979 24.7217C37.5166 24.7217 37.7217 24.7354 37.9131 24.7627C38.1182 24.79 38.3301 24.8037 38.5488 24.8037C38.5762 24.8037 38.6172 24.8174 38.6719 24.8447C38.7402 24.8584 38.8154 24.8652 38.8975 24.8652H40.8867C40.9961 24.8926 41.0713 24.8994 41.1123 24.8857C41.167 24.8721 41.2148 24.8652 41.2559 24.8652C41.3652 24.8652 41.4678 24.8721 41.5635 24.8857C41.6592 24.8994 41.7617 24.9062 41.8711 24.9062C41.9668 24.9062 42.042 24.8994 42.0967 24.8857C42.2061 24.8994 42.3086 24.9336 42.4043 24.9883C42.5 25.0293 42.6094 25.0498 42.7324 25.0498C42.7871 25.0908 42.8281 25.1455 42.8555 25.2139C42.8828 25.2686 42.9307 25.3096 42.999 25.3369Z" fill="white"/>
<path d="M16.8047 3.33594C17.0755 3.74219 17.2956 4.16536 17.4648 4.60547C17.668 5.01172 17.7695 5.29948 17.7695 5.46875C17.7695 5.70573 17.7357 5.90885 17.668 6.07812C17.6003 6.21354 17.4987 6.38281 17.3633 6.58594C16.0768 7.16146 14.7734 7.75391 13.4531 8.36328C12.1667 8.97266 10.8464 9.54818 9.49219 10.0898C9.15365 10.2253 8.83203 10.3607 8.52734 10.4961C8.22266 10.6315 7.88411 10.7669 7.51172 10.9023C7.44401 10.9701 7.29167 11.0378 7.05469 11.1055C6.85156 11.1393 6.66536 11.1562 6.49609 11.1562C6.5638 11.8333 6.59766 12.5273 6.59766 13.2383C6.63151 13.9492 6.66536 14.6602 6.69922 15.3711C6.69922 15.5742 6.73307 15.7773 6.80078 15.9805C6.86849 16.1497 6.90234 16.3359 6.90234 16.5391C6.97005 17.1823 7.00391 17.8086 7.00391 18.418C7.00391 19.0273 7.03776 19.6536 7.10547 20.2969C8.35807 19.7552 9.59375 19.2135 10.8125 18.6719C12.0651 18.0964 13.3177 17.5378 14.5703 16.9961C14.7734 17.0299 14.9935 17.0638 15.2305 17.0977C15.4674 17.1315 15.6875 17.1992 15.8906 17.3008C15.9583 17.3685 16.026 17.4531 16.0938 17.5547C16.1615 17.6562 16.2461 17.7409 16.3477 17.8086C16.3477 17.9779 16.4492 18.2318 16.6523 18.5703C16.8893 18.875 17.0078 19.2135 17.0078 19.5859C17.0078 19.6536 17.0586 19.7721 17.1602 19.9414C17.2617 20.0768 17.3294 20.1784 17.3633 20.2461C17.3633 20.5846 17.3464 20.7708 17.3125 20.8047C17.5495 20.974 17.7018 21.194 17.7695 21.4648C17.8711 21.7357 17.9219 22.0065 17.9219 22.2773C17.3125 22.9544 16.7031 23.4115 16.0938 23.6484C15.5182 23.8854 14.9258 24.1393 14.3164 24.4102C14.1471 24.5117 13.9609 24.6133 13.7578 24.7148C13.5547 24.8164 13.3516 24.918 13.1484 25.0195C12.8776 25.1211 12.6068 25.2227 12.3359 25.3242C12.099 25.3919 11.8451 25.4935 11.5742 25.6289C11.168 25.8659 10.7109 26.1367 10.2031 26.4414C9.69531 26.7461 9.23828 26.9323 8.83203 27C8.5612 27.0677 8.32422 27.1185 8.12109 27.1523C7.95182 27.1523 7.7487 27.237 7.51172 27.4062C7.47786 27.8125 7.46094 28.2188 7.46094 28.625C7.49479 28.9974 7.51172 29.3698 7.51172 29.7422C7.51172 30.1484 7.47786 30.5547 7.41016 30.9609C7.3763 31.3333 7.35938 31.7227 7.35938 32.1289C7.35938 32.806 7.32552 33.4831 7.25781 34.1602C7.1901 34.8034 7.15625 35.4466 7.15625 36.0898C7.15625 36.4961 7.17318 36.9023 7.20703 37.3086C7.24089 37.681 7.25781 38.0534 7.25781 38.4258C7.25781 38.6289 7.22396 38.8151 7.15625 38.9844C7.08854 39.1536 7.02083 39.3229 6.95312 39.4922C6.47917 39.5599 6.19141 39.5599 6.08984 39.4922C5.98828 39.3906 5.86979 39.306 5.73438 39.2383C5.5651 39.2383 5.44661 39.306 5.37891 39.4414C5.34505 39.5768 5.24349 39.6784 5.07422 39.7461C4.9388 39.7122 4.78646 39.7122 4.61719 39.7461C4.48177 39.7461 4.36328 39.7122 4.26172 39.6445C3.99089 39.7461 3.73698 39.8646 3.5 40C3.29688 40.1354 3.0599 40.237 2.78906 40.3047C2.28125 40.237 1.95964 40.2031 1.82422 40.2031C1.72266 40.237 1.60417 40.2708 1.46875 40.3047C1.23177 40.0677 1.11328 39.7799 1.11328 39.4414C1.14714 39.069 1.0625 38.7474 0.859375 38.4766C0.859375 38.138 0.825521 37.9349 0.757812 37.8672C0.690104 37.7656 0.65625 37.681 0.65625 37.6133C0.65625 37.5117 0.65625 37.4102 0.65625 37.3086C0.690104 37.1732 0.707031 37.0378 0.707031 36.9023C0.707031 36.5977 0.690104 36.3607 0.65625 36.1914C0.690104 35.9883 0.723958 35.6836 0.757812 35.2773C0.791667 34.8372 0.825521 34.3971 0.859375 33.957C0.893229 33.4831 0.910156 33.026 0.910156 32.5859C0.910156 32.1458 0.910156 31.7904 0.910156 31.5195C0.910156 31.3503 0.94401 31.2148 1.01172 31.1133C1.07943 30.9779 1.11328 30.8255 1.11328 30.6562C1.11328 30.3854 1.09635 30.1484 1.0625 29.9453C1.0625 29.7083 1.0625 29.4714 1.0625 29.2344C1.0625 28.7604 1.0625 28.2865 1.0625 27.8125C1.09635 27.3385 1.11328 26.8646 1.11328 26.3906C1.11328 24.9349 1.02865 23.513 0.859375 22.125C0.723958 20.7031 0.65625 19.2812 0.65625 17.8594C0.65625 17.0807 0.622396 16.2344 0.554688 15.3203C0.486979 14.3724 0.402344 13.5091 0.300781 12.7305C0.300781 12.5612 0.266927 12.4258 0.199219 12.3242C0.165365 12.1888 0.148438 12.0534 0.148438 11.918C0.114583 11.5117 0.0976562 11.1055 0.0976562 10.6992C0.0976562 10.2591 0.0976562 9.81901 0.0976562 9.37891C0.0976562 9.10807 0.0976562 8.73568 0.0976562 8.26172C0.0976562 7.75391 0.0976562 7.24609 0.0976562 6.73828C0.0976562 6.19661 0.0976562 5.6888 0.0976562 5.21484C0.13151 4.74089 0.165365 4.40234 0.199219 4.19922C0.199219 4.16536 0.300781 4.11458 0.503906 4.04688C0.707031 3.94531 0.842448 3.89453 0.910156 3.89453C1.07943 3.89453 1.21484 3.94531 1.31641 4.04688C1.41797 4.14844 1.53646 4.25 1.67188 4.35156C1.80729 4.25 1.94271 4.19922 2.07812 4.19922C2.2474 4.19922 2.41667 4.19922 2.58594 4.19922C3.09375 4.09766 3.39844 4.11458 3.5 4.25C3.63542 4.35156 3.73698 4.40234 3.80469 4.40234C3.90625 4.40234 3.99089 4.35156 4.05859 4.25C4.1263 4.14844 4.21094 4.09766 4.3125 4.09766C4.58333 4.09766 4.73568 4.16536 4.76953 4.30078C4.83724 4.4362 4.9388 4.50391 5.07422 4.50391C5.20964 4.50391 5.3112 4.45312 5.37891 4.35156C5.44661 4.25 5.51432 4.19922 5.58203 4.19922C5.68359 4.19922 5.78516 4.23307 5.88672 4.30078C5.98828 4.33464 6.08984 4.35156 6.19141 4.35156C6.36068 4.35156 6.54688 4.30078 6.75 4.19922C6.95312 4.0638 7.13932 3.96224 7.30859 3.89453C7.57943 3.82682 7.81641 3.74219 8.01953 3.64062C8.25651 3.53906 8.49349 3.45443 8.73047 3.38672C9.23828 3.08203 9.61068 2.89583 9.84766 2.82812C10.1185 2.72656 10.3893 2.60807 10.6602 2.47266C11.2357 2.20182 11.7773 1.94792 12.2852 1.71094C12.8268 1.4401 13.3854 1.1862 13.9609 0.949219C14.2656 0.949219 14.4688 0.88151 14.5703 0.746094C14.8073 0.847656 15.112 0.864583 15.4844 0.796875C15.8906 1.16927 16.1445 1.45703 16.2461 1.66016C16.3815 1.86328 16.5339 2.04948 16.7031 2.21875C16.9062 2.48958 17.0417 2.625 17.1094 2.625C17.1094 2.72656 17.0586 2.84505 16.957 2.98047C16.8555 3.11589 16.8047 3.23438 16.8047 3.33594Z" fill="#FEC90D"/>
</g>
<defs>
<clipPath id="clip0_169_98">
<rect width="44" height="41" fill="white"/>
</clipPath>
</defs>
</svg>
